# xmcd
#
# Track frame offsets: 
#        182
#        12510
#        26437
#        40132
#        54820
#        68490
#        81745
#        98130
#        112332
#        126545
#
# Disc length: 1906 seconds
#
# Revision: 4
# Processed by: cddbd v1.5.1PL2 Copyright (c) Steve Scherf et al.
# Submitted via: ExactAudioCopy v0.95b3
#
DISCID=8607700a
DTITLE=Kathy Mattea - Kathy Mattea
DYEAR=1985
DGENRE=Country
TTITLE0=Street Talk
TTITLE1=Someone Is Falling In Love
TTITLE2=You've Got A Soft Place To Fall
TTITLE3=Takin' The Givin' Away
TTITLE4=You Know That I Do (And I Know That You Won't)
TTITLE5=Full Time Love
TTITLE6=Somewhere Down The Road
TTITLE7=That's Easy For You To Say
TTITLE8=Back To The Heartbreak Kid
TTITLE9=God Ain't No Stained Glass Window
EXTD=YEAR: 1985
EXTT0=
EXTT1=
EXTT2=
EXTT3=
EXTT4=
EXTT5=
EXTT6=
EXTT7=
EXTT8=
EXTT9=
PLAYORDER=
